<?xml version="1.0" encoding="UTF-8" standalone="no"?>
<!-- Generator: Adobe Illustrator 23.0.1, SVG Export Plug-In . SVG Version: 6.00 Build 0)  -->

<svg
   xmlns:dc="http://purl.org/dc/elements/1.1/"
   xmlns:cc="http://creativecommons.org/ns#"
   xmlns:rdf="http://www.w3.org/1999/02/22-rdf-syntax-ns#"
   xmlns:svg="http://www.w3.org/2000/svg"
   xmlns="http://www.w3.org/2000/svg"
   xmlns:xlink="http://www.w3.org/1999/xlink"
   xmlns:sodipodi="http://sodipodi.sourceforge.net/DTD/sodipodi-0.dtd"
   xmlns:inkscape="http://www.inkscape.org/namespaces/inkscape"
   version="1.1"
   id="Layer_1"
   x="0px"
   y="0px"
   viewBox="0 0 1390.2 474.39999"
   xml:space="preserve"
   sodipodi:docname="Zoom Logo.svg"
   width="1390.2"
   height="474.39999"
   inkscape:version="0.92.3 (2405546, 2018-03-11)"><metadata
   id="metadata69"><rdf:RDF><cc:Work
       rdf:about=""><dc:format>image/svg+xml</dc:format><dc:type
         rdf:resource="http://purl.org/dc/dcmitype/StillImage" /></cc:Work></rdf:RDF></metadata><defs
   id="defs67" /><sodipodi:namedview
   pagecolor="#ffffff"
   bordercolor="#666666"
   borderopacity="1"
   objecttolerance="10"
   gridtolerance="10"
   guidetolerance="10"
   inkscape:pageopacity="0"
   inkscape:pageshadow="2"
   inkscape:window-width="1853"
   inkscape:window-height="1025"
   id="namedview65"
   showgrid="false"
   inkscape:zoom="0.7125"
   inkscape:cx="691.8145"
   inkscape:cy="83.119546"
   inkscape:window-x="67"
   inkscape:window-y="27"
   inkscape:window-maximized="1"
   inkscape:current-layer="Layer_1" />
<style
   type="text/css"
   id="style2">
	.st0{fill:#4A8CFF;}
	.st1{fill:#FFFFFF;}
	.st2{clip-path:url(#SVGID_2_);}
	.st3{fill:#E5E5E4;}
	.st4{clip-path:url(#SVGID_4_);}
	.st5{clip-path:url(#SVGID_6_);}
	.st6{clip-path:url(#SVGID_8_);}
</style>
<path
   class="st0"
   d="m 820.79999,142.3 h -0.1 c -52.4,0 -94.8,42.5 -94.8,94.8 0,52.4 42.4,94.9 94.8,94.9 52.4,0 94.9,-42.4 94.9,-94.8 0,-52.4 -42.4,-94.9 -94.8,-94.9 z m 40.1,135.1 c -22.3,22.2 -58.3,22.1 -80.5,-0.1 -22.1,-22.2 -22.1,-58.2 0,-80.4 22.2,-22.3 58.2,-22.3 80.5,-0.1 0,0 0.1,0.1 0.1,0.1 22.3,22.2 22.2,58.3 -0.1,80.5 z"
   id="path4"
   inkscape:connector-curvature="0"
   style="fill:#4a8cff" />
<path
   class="st0"
   d="m 706.89999,294.6 -9.5,-0.5 h -85.4 l 113.9,-113.9 -0.5,-9.5 c -0.4,-15.3 -12.7,-27.6 -28,-28 l -9.5,-0.5 h -142.3 l 0.5,9.5 c 0.7,15.1 12.8,27.3 28,28 l 9.5,0.5 h 85.4 l -113.9,113.9 0.5,9.5 c 0.5,15.2 12.8,27.5 28,28 l 9.5,0.5 h 142.3 l -0.5,-9.5 c -1.3,-15.7 -12.4,-27.1 -28,-28 z"
   id="path6"
   inkscape:connector-curvature="0"
   style="fill:#4a8cff" />

<path
   class="st0"
   d="m 1314.2,142.3 c -21.8,0 -42.5,9.4 -56.9,25.7 -25.2,-28.6 -67.8,-34.1 -99.4,-12.7 -7.3,-8.3 -23.9,-13 -33.4,-13 v 189.8 l 9.5,-0.5 c 15.8,-1 27.4,-12.2 28,-28 l 0.5,-9.5 v -66.4 l 0.5,-9.5 c 0,-6.6 1.7,-13.1 4.7,-19 10.4,-18.1 33.6,-24.3 51.8,-13.8 5.7,3.3 10.5,8.1 13.8,13.8 h -0.1 c 3.1,5.9 4.7,12.4 4.7,19 l 0.5,9.5 v 66.4 l 0.5,9.5 c 0.6,15.2 12.7,27.4 27.9,28 l 9.5,0.5 V 227.7 l 0.5,-9.5 c 0,-6.7 1.6,-13.2 4.7,-19.1 10.5,-18.1 33.8,-24.3 51.9,-13.7 5.7,3.3 10.5,8.1 13.8,13.8 3,5.9 4.6,12.4 4.6,19 l 0.5,9.5 v 66.4 l 0.5,9.5 c 0.5,15.2 12.7,27.4 27.9,28 l 9.5,0.5 V 218.2 c -0.1,-41.9 -34.1,-75.9 -76,-75.9 z"
   id="path10"
   inkscape:connector-curvature="0"
   style="fill:#4a8cff" />
<path
   class="st0"
   d="m 1087.1,170.1 c -17.8,-17.8 -41.9,-27.8 -67.1,-27.8 -25.20001,0 -49.30001,10 -67.10001,27.8 -37,37.1 -37,97.2 0.1,134.2 37.1,37 97.20001,37 134.20001,-0.1 37.1,-37 37,-97.1 -0.1,-134.1 z m -26.9,107.3 c -22.3,22.2 -58.3,22.1 -80.50001,-0.1 -22.1,-22.2 -22.1,-58.2 0,-80.4 C 1001.9,174.6 1037.9,174.6 1060.2,196.8 c 0,0 0.1,0.1 0.1,0.1 22.3,22.2 22.2,58.3 -0.1,80.5 z"
   id="path12"
   inkscape:connector-curvature="0"
   style="fill:#4a8cff" />



<g
   id="g50"
   transform="translate(633.09999,207.1)">
	<defs
   id="defs41">
		<circle
   id="SVGID_5_"
   cx="-395.89999"
   cy="30.1"
   r="218.2" />
	</defs>
	<clipPath
   id="SVGID_6_">
		<use
   xlink:href="#SVGID_5_"
   style="overflow:visible"
   id="use43"
   x="0"
   y="0"
   width="100%"
   height="100%" />
	</clipPath>
	<g
   class="st5"
   clip-path="url(#SVGID_6_)"
   id="g48">
		<path
   class="st0"
   d="m -626,-200 h 460.2 V 260.2 H -626 Z"
   id="path46"
   inkscape:connector-curvature="0"
   style="fill:#4a8cff" />
	</g>
</g>
<g
   id="g62"
   transform="translate(633.09999,207.1)">
	<defs
   id="defs53">
		<path
   id="SVGID_7_"
   d="m -329.5,1.8 61.7,-45.1 c 5.4,-4.4 9.5,-3.4 9.5,4.7 V 98.9 c 0,9.1 -5.1,8.1 -9.5,4.7 l -61.7,-45.1 z m -208.8,-40 V 64.2 c 0.1,23.2 19,41.9 42.2,41.8 h 149.5 c 4.2,0 7.6,-3.4 7.7,-7.6 V -4.1 c -0.1,-23.2 -19,-41.9 -42.2,-41.8 h -149.5 c -4.2,0.1 -7.6,3.4 -7.7,7.7 z"
   inkscape:connector-curvature="0" />
	</defs>
	<clipPath
   id="SVGID_8_">
		<use
   xlink:href="#SVGID_7_"
   style="overflow:visible"
   id="use55"
   x="0"
   y="0"
   width="100%"
   height="100%" />
	</clipPath>
	<g
   class="st6"
   clip-path="url(#SVGID_8_)"
   id="g60">
		<path
   class="st1"
   d="m -550.1,-57.7 h 303.7 v 175.5 h -303.7 z"
   id="path58"
   inkscape:connector-curvature="0"
   style="fill:#ffffff" />
	</g>
</g>
</svg>